<?xml version="1.0" encoding="UTF-8"?>
<svg id="Layer_2" data-name="Layer 2" xmlns="http://www.w3.org/2000/svg" version="1.1" viewBox="0 0 52.7 62.7">
  <defs>
    <style>
      .cls-1, .cls-2 {
        isolation: isolate;
      }

      .cls-3 {
        stroke-width: 0px;
      }

      .cls-3, .cls-2 {
        fill: #fff;
      }

      .cls-2 {
        font-family: AvenirNextLTPro-Bold, 'Avenir Next LT Pro';
        font-size: 13.7px;
        font-weight: 700;
      }
    </style>
  </defs>
  <g id="Dark">
    <path class="cls-3" d="M18,27.3h1.2c.8,0,1.5-.7,1.5-2s-.7-1.9-1.5-1.9h-1.2v3.9h0ZM18,20.6h1c.8,0,1.3-.8,1.3-1.6s-.5-1.7-1.3-1.7h-1v3.3ZM13.8,14.3h6.3c3,0,4.4,1.6,4.4,4s-.7,3.2-2.5,3.6h0c2.1.2,3,2,3,3.7,0,2.8-1.3,4.7-4.8,4.7h-6.3v-16ZM32.4,17.5h0l-1.1,6.8h2.3s-1.2-6.8-1.2-6.8ZM29.8,14.2h5.2l3.9,16h-4.4l-.4-2.8h-3.3l-.4,2.8h-4.4l3.9-16Z"/>
    <g class="cls-1">
      <text class="cls-2" transform="translate(7.7 45.1)"><tspan x="0" y="0">CSDB</tspan></text>
    </g>
  </g>
</svg>