<?xml version="1.0" encoding="UTF-8"?>
<svg id="Layer_2" data-name="Layer 2" xmlns="http://www.w3.org/2000/svg" viewBox="0 0 52.71 62.71">
  <defs>
    <style>
      .cls-1 {
        font-family: AvenirNextLTPro-BoldCn, 'Avenir Next LT Pro';
        font-size: 25.02px;
        font-weight: 700;
      }

      .cls-1, .cls-2 {
        fill: #fff;
      }

      .cls-2 {
        stroke-width: 0px;
      }
    </style>
  </defs>
  <g id="Dark">
    <path class="cls-2" d="M11.01,23.96h2.14c1.39,0,2.71-1.24,2.71-3.62s-1.31-3.52-2.71-3.52h-2.14v7.13ZM11.01,11.66h1.86c1.54,0,2.41-1.39,2.41-2.95,0-1.65-.88-3.03-2.41-3.03h-1.86v5.98ZM3.39.16h11.51c5.47,0,8,2.93,8,7.31,0,3.11-1.35,5.9-4.6,6.56v.08c3.86.37,5.43,3.64,5.43,6.67,0,5.09-2.45,8.66-8.83,8.66H3.39V.16ZM37.44,6h-.09l-2.08,12.41h4.28l-2.11-12.41ZM32.6,0h9.59l7.14,29.29h-8.12l-.77-5.14h-6.08l-.78,5.14h-8.1L32.6,0Z"/>
    <text class="cls-1" transform="translate(0 56.45)"><tspan x="0" y="0">CSDB</tspan></text>
  </g>
</svg>