<?xml version="1.0" encoding="UTF-8"?>
<svg id="Layer_2" data-name="Layer 2" xmlns="http://www.w3.org/2000/svg" viewBox="0 0 500 800">
  <defs>
    <style>
      .cls-1 {
        fill: #a80707;
      }

      .cls-1, .cls-2, .cls-3, .cls-4, .cls-5, .cls-6, .cls-7, .cls-8, .cls-9, .cls-10, .cls-11, .cls-12 {
        stroke-width: 0px;
      }

      .cls-13 {
        font-family: AvenirNextLTPro-Bold, 'Avenir Next LT Pro';
        font-size: 95.2px;
        font-weight: 700;
      }

      .cls-13, .cls-14 {
        isolation: isolate;
      }

      .cls-13, .cls-3 {
        fill: #fff;
      }

      .cls-2 {
        fill: #ff7555;
      }

      .cls-4 {
        fill: #c62828;
      }

      .cls-5 {
        fill: #003e51;
      }

      .cls-6 {
        fill: #a1d5e5;
      }

      .cls-7 {
        fill: #424242;
      }

      .cls-8 {
        fill: #616161;
      }

      .cls-9 {
        fill: #332424;
      }

      .cls-15 {
        letter-spacing: -.1em;
      }

      .cls-10 {
        fill: #558ea0;
      }

      .cls-11 {
        fill: #82aec0;
      }

      .cls-12 {
        fill: #f44336;
      }
    </style>
  </defs>
  <rect class="cls-5" x="-1" y="-.5" width="500" height="800"/>
  <path class="cls-3" d="M183.6,273.7h8.8c5.7,0,11.2-5.1,11.2-14.9s-5.4-14.5-11.2-14.5h-8.8v29.5-.1ZM183.6,222.9h7.7c6.4,0,10-5.7,10-12.2s-3.6-12.5-10-12.5h-7.7v24.7ZM152.2,175.4h47.5c22.6,0,33.1,12.1,33.1,30.2s-5.6,24.4-19,27.1v.3c16,1.5,22.4,15,22.4,27.6,0,21-10.1,35.8-36.5,35.8h-47.5v-121h0ZM292.8,199.5h-.4l-8.6,51.3h17.7l-8.7-51.3ZM272.8,174.8h39.6l29.5,121h-33.5l-3.2-21.2h-25.1l-3.2,21.2h-33.5l29.4-121h0Z"/>
  <g class="cls-14">
    <text class="cls-13" transform="translate(146.8 587.5)"><tspan x="0" y="0">CSDB</tspan></text>
    <text class="cls-13" transform="translate(114.8 701.7)"><tspan class="cls-15" x="0" y="0">T</tspan><tspan x="46.17" y="0">oolkit</tspan></text>
  </g>
  <g>
    <polygon class="cls-12" points="305.7 373.6 313.7 393.1 180.3 393.1 188.3 373.6 305.7 373.6"/>
    <path class="cls-2" d="M286.9,367.2c1.5,0,3,.3,4.4.8l14.5,5.6h-117.5l14.5-5.6c1.4-.6,2.9-.8,4.4-.8h79.8-.1Z"/>
    <path class="cls-4" d="M309.2,468.4c1.3,0,2.3-.5,3.2-1.4.9-.9,1.3-2,1.3-3.1v-70.8h-133.3v70.8c0,1.2.4,2.2,1.3,3.1.9.9,1.9,1.4,3.2,1.4h124.3Z"/>
    <rect class="cls-1" x="180.4" y="414.4" width="133.4" height="2.4"/>
    <path class="cls-1" d="M221.5,410.2c1.3,0,1.9.6,1.9,1.7v10.8c0,1.1-.6,1.7-1.9,1.7h-2.7v5.6c0,1.2-.5,2.2-1.5,3.1s-2.2,1.3-3.5,1.3h-2.8c-1.4,0-2.6-.4-3.6-1.3s-1.5-1.9-1.5-3.1v-5.6h-2.7c-1.3,0-1.9-.6-1.9-1.7v-10.8c0-1.1.6-1.7,1.9-1.7h18.4-.1Z"/>
    <path class="cls-10" d="M220.2,422.1c.9,0,1.3-.4,1.2-1.2v-11.5c0-.8-.4-1.2-1.2-1.2h-15.8c-.8,0-1.2.4-1.2,1.2v11.5c0,.8.4,1.2,1.2,1.2h15.8Z"/>
    <rect class="cls-9" x="207" y="413.9" width="10.5" height="3.2"/>
    <path class="cls-11" d="M217.7,413.9h0v-5.8c0-.9-.3-1.7-.9-2.3-.6-.6-1.4-.9-2.3-.9h-4.3c-.9,0-1.6.3-2.3.9-.6.6-.9,1.4-.9,2.3v5.8h10.7Z"/>
    <path class="cls-11" d="M207,416.8h0v11.7c0,.9.3,1.7.9,2.3.6.6,1.4.9,2.3.9h4.3c.9,0,1.6-.3,2.3-.9.6-.6.9-1.4.9-2.3v-11.7h-10.7Z"/>
    <path class="cls-6" d="M215.7,426.1c-3.2,0-5.5,0-6.6.3-1.2.2-1.6.7-1.3,1.4.2.6.5,1,1.1,1.3s1.1.6,1.8.7c1.2.3,2.4.3,3.8-.1.9-.2,1.5-.5,2-.9.5-.3.6-.8.5-1.4,0-.8-.5-1.2-1.2-1.2l-.1-.1Z"/>
    <path class="cls-1" d="M290.8,410.2c1.3,0,1.9.6,1.9,1.7v10.8c0,1.1-.6,1.7-1.9,1.7h-2.7v5.6c0,1.2-.5,2.2-1.5,3.1s-2.2,1.3-3.5,1.3h-2.8c-1.4,0-2.6-.4-3.6-1.3s-1.5-1.9-1.5-3.1v-5.6h-2.7c-1.3,0-1.9-.6-1.9-1.7v-10.8c0-1.1.6-1.7,1.9-1.7h18.4-.1Z"/>
    <path class="cls-10" d="M289.5,422.1c.9,0,1.3-.4,1.2-1.2v-11.5c0-.8-.4-1.2-1.2-1.2h-15.8c-.8,0-1.2.4-1.2,1.2v11.5c0,.8.4,1.2,1.2,1.2h15.8Z"/>
    <rect class="cls-9" x="276.3" y="413.9" width="10.5" height="3.2"/>
    <path class="cls-11" d="M287.1,413.9h0v-5.8c0-.9-.3-1.7-.9-2.3-.6-.6-1.4-.9-2.3-.9h-4.3c-.9,0-1.6.3-2.3.9-.6.6-.9,1.4-.9,2.3v5.8h10.7,0Z"/>
    <path class="cls-11" d="M276.4,416.8h0v11.7c0,.9.3,1.7.9,2.3.6.6,1.4.9,2.3.9h4.3c.9,0,1.6-.3,2.3-.9.6-.6.9-1.4.9-2.3v-11.7h-10.7,0Z"/>
    <path class="cls-6" d="M285.4,426.1c-6.3-.2-9.1.3-8.3,1.7.6.9,1.5,1.6,2.8,2,1.2.2,2.4.2,3.8-.1.9-.2,1.6-.5,2.1-.9.7-.6.9-1.2.7-1.8,0-.4-.2-.6-.5-.7-.2,0-.5-.1-.7-.1l.1-.1Z"/>
    <path class="cls-7" d="M276.5,367.8c.3.4.4.8.2,1.2s-.2.6-.2.6h-6c-1,0-1.9-.4-2.5-1.3-.7-.9-1.2-1.8-1.6-2.7-.4-.9-.6-1.5-.7-1.7-.6-1.4-1.3-2.9-2.3-4.5s-2.4-2.4-4.1-2.4h-21c-1.7,0-3.1.8-4.1,2.4s-1.7,3.1-2.2,4.5c0,.2-.3.8-.7,1.7-.4.9-.9,1.8-1.7,2.7-.7.9-1.5,1.3-2.5,1.3h-6.2s0-.2-.2-.6,0-.8.2-1.2c.3-.4.8-.8,1.4-1.1.6-.3,1.1-.6,1.3-.7,1.2-.6,2-1.6,2.4-2.9s.8-2.7,1.2-4.1c.4-1.5.9-2.8,1.7-4,.9-1.6,2.3-2.9,4-4.1,1.7-1.1,3.5-1.7,5.3-1.7h21c1.9,0,3.7.6,5.3,1.7s3,2.5,4,4.1c.7,1.2,1.2,2.5,1.6,4s.8,2.8,1.2,4.1c.5,1.3,1.3,2.3,2.4,2.9.2.2.7.4,1.4.7s1.1.7,1.4,1.1h0Z"/>
    <path class="cls-8" d="M232.8,352.6l-1.4,1.4c-.4.5-.8,1-1.2,1.7-.3.6-.6,1.3-.8,1.9s-.5,1.3-.7,1.9c-.3.6-.4,1.1-.1,1.3s.4.2.7.2.6-.3.9-.5c.3-.3.5-.6.8-.9.4-.6.8-1.3,1.1-2,.4-.7.8-1.2,1.4-1.7.8-.7,1.7-1.2,2.8-1.5s2.2-.6,3.2-1c.8-.3,1.2-.7,1.3-1.2.2-.6,0-1-.6-1.4-.4-.2-.9-.4-1.7-.4-2.1,0-4,.7-5.7,2.1v.1Z"/>
    <path class="cls-6" d="M212.8,408.2c.6,0,1.1,0,1.8-.2s.9-.6.7-1.4c-.2-.7-.7-1.1-1.5-1.1h-2.7c-1.3.2-2.2.7-2.7,1.5-.3.5-.5,1-.5,1.5s0,1,.2,1.5c0,.3.2.5.4.5s.5,0,.7-.5c.8-1.2,2-1.8,3.6-1.9v.1Z"/>
    <path class="cls-6" d="M282.2,408.2c.6,0,1.1,0,1.8-.2.6-.1.8-.6.6-1.4-.2-.7-.6-1.1-1.4-1.1h-2.7c-1.3.2-2.2.7-2.7,1.5-.3.5-.5,1-.5,1.5s0,1,.2,1.5c0,.3.2.5.4.5s.5,0,.7-.5c.8-1.2,2-1.8,3.6-1.9v.1Z"/>
  </g>
</svg>