<?xml version="1.0" encoding="UTF-8"?>
<svg id="Light" xmlns="http://www.w3.org/2000/svg" viewBox="0 0 79.18 79.18">
  <defs>
    <style>
      .cls-1 {
        fill: #010101;
      }

      .cls-1, .cls-2 {
        stroke-width: 0px;
      }

      .cls-2 {
        fill: #fff;
      }

      .cls-3 {
        fill: #231f20;
        font-family: AvenirNextLTPro-BoldCn, 'Avenir Next LT Pro';
        font-size: 25.02px;
        font-weight: 700;
      }
    </style>
  </defs>
  <rect class="cls-2" width="79.18" height="79.18"/>
  <path class="cls-1" d="M24.24,36.07h2.14c1.39,0,2.71-1.24,2.71-3.62s-1.31-3.52-2.71-3.52h-2.14v7.13ZM24.24,23.77h1.86c1.54,0,2.41-1.39,2.41-2.95,0-1.65-.88-3.03-2.41-3.03h-1.86v5.98ZM16.62,12.28h11.51c5.47,0,8,2.93,8,7.31,0,3.11-1.35,5.9-4.6,6.56v.08c3.86.37,5.43,3.64,5.43,6.67,0,5.09-2.45,8.66-8.83,8.66h-11.51V12.28ZM50.67,18.12h-.09l-2.08,12.41h4.28l-2.11-12.41ZM45.83,12.11h9.59l7.14,29.29h-8.12l-.77-5.14h-6.08l-.78,5.14h-8.1l7.12-29.29Z"/>
  <text class="cls-3" transform="translate(13.23 68.57)"><tspan x="0" y="0">CSDB</tspan></text>
</svg>