<?xml version="1.0" encoding="UTF-8"?>
<svg id="SGM_to_XML" data-name="SGM to XML" xmlns="http://www.w3.org/2000/svg" viewBox="0 0 300 300">
  <defs>
    <style>
      .cls-1 {
        fill: #00a9a3;
      }

      .cls-1, .cls-2, .cls-3, .cls-4, .cls-5 {
        stroke-width: 0px;
      }

      .cls-2 {
        fill: #c5df94;
      }

      .cls-6 {
        font-family: ArialUnicodeMS, 'Arial Unicode MS';
        font-size: 146.61px;
        stroke: #ed1c24;
        stroke-width: 4px;
      }

      .cls-6, .cls-7 {
        fill: none;
      }

      .cls-6, .cls-7, .cls-8, .cls-9 {
        stroke-linecap: round;
        stroke-linejoin: round;
      }

      .cls-7 {
        stroke: #fff200;
        stroke-width: 2px;
      }

      .cls-10 {
        font-size: 29.25px;
      }

      .cls-10, .cls-11, .cls-12, .cls-8, .cls-9, .cls-13 {
        font-family: JetBrainsMonoNFM-Bold, 'JetBrainsMono Nerd Font Mono';
        font-weight: 700;
      }

      .cls-4 {
        fill: #f4783b;
      }

      .cls-5 {
        fill: #f9c3d2;
      }

      .cls-11, .cls-8 {
        font-size: 58.58px;
        letter-spacing: 0em;
      }

      .cls-12, .cls-9 {
        font-size: 57.78px;
        letter-spacing: 0em;
      }

      .cls-14 {
        stroke: #000;
        stroke-miterlimit: 10;
      }

      .cls-14, .cls-8, .cls-9 {
        fill: #fff;
      }

      .cls-8, .cls-9 {
        stroke: #fff;
        stroke-width: 7px;
      }

      .cls-13 {
        font-size: 28.85px;
      }
    </style>
  </defs>
  <g id="SGML">
    <g id="File">
      <g>
        <path class="cls-2" d="M112.6,15.68H24.94c-2.58,0-4.9,2.71-4.9,5.16v149.54c0,2.45,2.32,5.16,4.9,5.16h116.28c2.45,0,5.29-2.58,5.29-5.16V49.2L112.6,15.68Z"/>
        <path class="cls-5" d="M114.28,17.1v23.46c0,4.38,4,8.64,8.25,8.64h23.33l-31.58-32.1Z"/>
        <path class="cls-3" d="M141.22,176.82H24.94c-3.48,0-6.19-2.84-6.19-6.45V20.84c0-3.61,2.71-6.45,6.19-6.45h87.66c.39,0,.64.13.9.39l33.9,33.52c.26.26.39.52.39.9v121.18c0,3.61-2.96,6.45-6.57,6.45ZM24.94,16.97c-2.06,0-3.61,1.68-3.61,3.87v149.54c0,2.19,1.55,3.87,3.61,3.87h116.28c2.19,0,4-1.8,4-3.87V49.72l-33.13-32.74H24.94Z"/>
        <path class="cls-3" d="M134.91,50.49h-12.38c-5.41,0-10.83-5.67-10.83-11.22v-22.3c0-.77.52-1.29,1.29-1.29s1.29.52,1.29,1.29v22.3c0,4.13,4.38,8.64,8.25,8.64h12.38c.77,0,1.29.52,1.29,1.29s-.52,1.29-1.29,1.29Z"/>
      </g>
      <rect class="cls-14" x="59.63" y="151.1" width="107.42" height="37.3" rx="1.63" ry="1.63"/>
      <text class="cls-13" transform="translate(69.05 179.24) scale(1.28 1)"><tspan x="0" y="0">SGML</tspan></text>
    </g>
    <g>
      <text class="cls-9" transform="translate(30.78 120.71)"><tspan x="0" y="0">&lt;/&gt;</tspan></text>
      <text class="cls-12" transform="translate(30.78 120.71)"><tspan x="0" y="0">&lt;/&gt;</tspan></text>
    </g>
  </g>
  <g id="XML">
    <g id="File-2" data-name="File">
      <g id="SGML-2" data-name="SGML">
        <g>
          <path class="cls-4" d="M237.62,116.13h-88.87c-2.61,0-4.97,2.74-4.97,5.23v151.6c0,2.48,2.35,5.23,4.97,5.23h117.88c2.48,0,5.36-2.61,5.36-5.23v-122.85l-34.37-33.98Z"/>
          <path class="cls-1" d="M239.32,117.57v23.79c0,4.44,4.05,8.76,8.36,8.76h23.66l-32.02-32.54Z"/>
          <path class="cls-3" d="M266.63,279.5h-117.88c-3.53,0-6.27-2.88-6.27-6.53V121.36c0-3.66,2.74-6.53,6.27-6.53h88.87c.39,0,.65.13.91.39l34.37,33.98c.26.26.39.52.39.91v122.85c0,3.66-3.01,6.53-6.67,6.53ZM148.75,117.44c-2.09,0-3.66,1.7-3.66,3.92v151.6c0,2.22,1.57,3.92,3.66,3.92h117.88c2.22,0,4.05-1.83,4.05-3.92v-122.33l-33.59-33.2h-88.35Z"/>
          <path class="cls-3" d="M260.23,151.42h-12.55c-5.49,0-10.98-5.75-10.98-11.37v-22.61c0-.78.52-1.31,1.31-1.31s1.31.52,1.31,1.31v22.61c0,4.18,4.44,8.76,8.36,8.76h12.55c.78,0,1.31.52,1.31,1.31s-.52,1.31-1.31,1.31Z"/>
        </g>
        <rect class="cls-14" x="183.92" y="253.42" width="108.9" height="37.82" rx="1.63" ry="1.63"/>
        <text class="cls-10" transform="translate(204.69 281.95) scale(1.28 1)"><tspan x="0" y="0">XML</tspan></text>
      </g>
      <g>
        <text class="cls-8" transform="translate(155.39 222.61)"><tspan x="0" y="0">&lt;/&gt;</tspan></text>
        <text class="cls-11" transform="translate(155.39 222.61)"><tspan x="0" y="0">&lt;/&gt;</tspan></text>
      </g>
    </g>
  </g>
  <g id="Arrow">
    <g>
      <path class="cls-7" d="M102.62,207.22c0,.18,11-.2,11,0,0,2.14-9.98,3.17-9.98,5.23,0,.84,15.3-.71,15.3,0,0,3.18-16,2.53-16,5.9,0,1.31,19.84-1.35,19.84,0,0,4.03-19.85,1.48-19.85,5.31,0,2.11,23.01-2.21,23.01,0,0,4.03-24.25.44-24.25,5.38,0,3.25,28.1-3.18,28.1,0"/>
      <path class="cls-7" d="M57.95,195.81c0,.16,10.92-.18,10.92,0,0,2.99-17.77,3.2-17.77,6.81,0,2.58,23.27-2.3,23.27,0,0,4.87-26.18,1.51-26.18,5.76,0,3.75,32.89-4.5,32.89,0,0,6.26-33.26,1.6-33.26,6.91,0,6.15,40.9-6.05,40.9,0s-36.02.4-36.02,5.99c0,6.26,43.16-4.91,43.16,0,0,7.11-35.39-.32-35.39,6.31,0,7.01,44.5-5.67,44.5,0,0,6.94-38.58-.85-38.58,5.72,0,8.47,65.25-8.73,65.25,0s-55.58-4.26-55.58,6.43c0,9.16,60.66-7.7,60.66,0,0,8.75-51.81-4.39-51.81,6.01,0,7.37,56.47-8.76,56.47,0,0,9.72-52.15-2.02-52.15,5.91,0,8.63,54.94-8.35,54.94,0,0,9.61-62.51-5.71-62.51,6.56,0,10.54,68.27-10.78,68.27,0,0,13.64-74.83-8.19-74.83,5.11,0,3.08,26.51-2.75,26.51,0"/>
    </g>
    <text class="cls-6" transform="translate(48.16 281.95) rotate(-11.75)"><tspan x="0" y="0">➘</tspan></text>
  </g>
</svg>