<?xml version="1.0" encoding="UTF-8"?>
<svg id="Graphics_Identification" data-name="Graphics Identification" xmlns="http://www.w3.org/2000/svg" xmlns:xlink="http://www.w3.org/1999/xlink" viewBox="0 0 300 300">
  <defs>
    <style>
      .cls-1 {
        fill: url(#linear-gradient);
      }

      .cls-1, .cls-2, .cls-3, .cls-4, .cls-5, .cls-6, .cls-7, .cls-8, .cls-9, .cls-10 {
        stroke-width: 0px;
      }

      .cls-3 {
        fill: #acd9ea;
      }

      .cls-4 {
        fill: #702c8d;
      }

      .cls-11 {
        filter: url(#drop-shadow-1);
      }

      .cls-5 {
        fill: #f0c960;
      }

      .cls-6 {
        fill: #ec008c;
      }

      .cls-7 {
        fill: #231f20;
      }

      .cls-8 {
        fill: #f4efef;
      }

      .cls-9 {
        fill: #54b265;
      }

      .cls-12 {
        font-family: JetBrainsMonoNF-Regular, 'JetBrainsMono Nerd Font';
        font-size: 24.85px;
      }

      .cls-10 {
        fill: #d8d8d8;
      }
    </style>
    <filter id="drop-shadow-1" filterUnits="userSpaceOnUse">
      <feOffset dx="7" dy="7"/>
      <feGaussianBlur result="blur" stdDeviation="5"/>
      <feFlood flood-color="#000" flood-opacity=".75"/>
      <feComposite in2="blur" operator="in"/>
      <feComposite in="SourceGraphic"/>
    </filter>
    <linearGradient id="linear-gradient" x1="205.64" y1="133.13" x2="213.32" y2="111.35" gradientUnits="userSpaceOnUse">
      <stop offset=".3" stop-color="#3ddeed"/>
      <stop offset="1" stop-color="#3ddeed" stop-opacity="0"/>
    </linearGradient>
  </defs>
  <g>
    <path class="cls-8" d="M28.07,15.9h-14.77c-.43,0-.96.45-.96.86v24.83c0,.41.56.86.96.86h19.52c.41,0,.71-.43.71-.86v-20.12l-5.46-5.57Z"/>
    <path class="cls-10" d="M27.94,16.13v3.9c0,.73.81,1.43,1.54,1.43h3.87l-5.42-5.33Z"/>
    <rect class="cls-3" x="14.47" y="24.89" width="17.13" height="11.56"/>
    <path class="cls-5" d="M26.78,27.67c.02.58-.47,1.07-1.07,1.07s-1.07-.47-1.07-1.07.47-1.07,1.07-1.07c.24,0,.45.06.62.19,0,0,.43.21.45.88Z"/>
    <path class="cls-9" d="M31.28,36.45H14.47v-5.44l1.24-1.39,3.73,4.07s.11.06.17.06.11-.02.15-.06c.09-.09.09-.21,0-.3l-2.01-2.01,3.02-3.1,6.32,6.32s.11.06.15.06.11-.02.15-.06c.09-.09.09-.21,0-.3l-1.39-1.39,3.13-3.06,2.12,2.12.04,4.5Z"/>
    <path class="cls-2" d="M31.38,36.88H14.26c-.13,0-.21-.09-.21-.21v-11.56c0-.13.09-.21.21-.21h14.34c.13,0,.21.09.21.21s-.09.21-.21.21h-14.13v11.13h16.7v-11.13h-.43c-.13,0-.21-.09-.21-.21s.09-.21.21-.21h.64c.13,0,.21.09.21.21v11.56c0,.13-.11.21-.21.21Z"/>
    <path class="cls-2" d="M14.26,31.29c-.06,0-.11-.02-.15-.06-.09-.09-.09-.21,0-.3l1.46-1.46c.09-.09.21-.09.3,0s.09.21,0,.3l-1.46,1.46s-.11.06-.15.06Z"/>
    <path class="cls-2" d="M19.61,33.75c-.06,0-.11-.02-.15-.06l-3.92-3.92c-.09-.09-.09-.21,0-.3s.21-.09.3,0l3.92,3.92c.09.09.09.21,0,.3-.04.04-.09.06-.15.06Z"/>
    <path class="cls-2" d="M17.96,30.99c-.06,0-.11-.02-.15-.06-.09-.09-.09-.21,0-.3l2.8-2.8c.09-.09.21-.09.3,0s.09.21,0,.3l-2.8,2.8s-.09.06-.15.06Z"/>
    <path class="cls-2" d="M26.33,32.57c-.06,0-.11-.02-.15-.06-.09-.09-.09-.21,0-.3l2.8-2.8c.09-.09.21-.09.3,0s.09.21,0,.3l-2.8,2.8s-.11.06-.15.06Z"/>
    <path class="cls-2" d="M27.25,34.65c-.06,0-.11-.02-.15-.06l-6.49-6.49c-.09-.09-.09-.21,0-.3s.21-.09.3,0l6.49,6.49c.09.09.09.21,0,.3-.04.04-.11.06-.15.06Z"/>
    <path class="cls-2" d="M31.21,31.82c-.06,0-.11-.02-.15-.06l-2.08-2.08c-.09-.09-.09-.21,0-.3s.21-.09.3,0l2.08,2.08c.09.09.09.21,0,.3-.04.06-.09.06-.15.06Z"/>
    <path class="cls-2" d="M25.71,28.96c-.71,0-1.28-.58-1.28-1.28s.58-1.28,1.28-1.28c.26,0,.51.09.73.24.11.06.13.19.04.3-.06.11-.19.13-.3.04-.15-.11-.32-.15-.49-.15-.47,0-.86.39-.86.86s.39.86.86.86.86-.39.86-.86c0-.13.09-.21.21-.21s.21.09.21.21c.02.71-.56,1.28-1.26,1.28Z"/>
    <path class="cls-2" d="M32.65,42.66H13.34c-.58,0-1.03-.47-1.03-1.07v-24.83c0-.6.45-1.07,1.03-1.07h14.56c.06,0,.11.02.15.06l5.63,5.57s.06.09.06.15v20.12c0,.6-.49,1.07-1.09,1.07ZM13.34,16.11c-.34,0-.6.28-.6.64v24.83c0,.36.26.64.6.64h19.31c.36,0,.66-.3.66-.64v-20.04l-5.5-5.44h-14.47Z"/>
    <path class="cls-2" d="M31.6,21.68h-2.06c-.9,0-1.8-.94-1.8-1.86v-3.7c0-.13.09-.21.21-.21s.21.09.21.21v3.7c0,.69.73,1.43,1.37,1.43h2.06c.13,0,.21.09.21.21s-.11.21-.21.21Z"/>
    <text class="cls-12" transform="translate(39.81 36.88)"><tspan x="0" y="0">FM0724_039.???</tspan></text>
  </g>
  <g>
    <path class="cls-8" d="M28.07,156.19h-14.77c-.43,0-.96.45-.96.86v24.83c0,.41.56.86.96.86h19.52c.41,0,.71-.43.71-.86v-20.12l-5.46-5.57Z"/>
    <path class="cls-10" d="M27.94,156.42v3.9c0,.73.81,1.43,1.54,1.43h3.87l-5.42-5.33Z"/>
    <rect class="cls-3" x="14.47" y="165.18" width="17.13" height="11.56"/>
    <path class="cls-5" d="M26.78,167.96c.02.58-.47,1.07-1.07,1.07s-1.07-.47-1.07-1.07.47-1.07,1.07-1.07c.24,0,.45.06.62.19,0,0,.43.21.45.88Z"/>
    <path class="cls-9" d="M31.28,176.74H14.47v-5.44l1.24-1.39,3.73,4.07s.11.06.17.06.11-.02.15-.06c.09-.09.09-.21,0-.3l-2.01-2.01,3.02-3.1,6.32,6.32s.11.06.15.06.11-.02.15-.06c.09-.09.09-.21,0-.3l-1.39-1.39,3.13-3.06,2.12,2.12.04,4.5Z"/>
    <path class="cls-2" d="M31.38,177.17H14.26c-.13,0-.21-.09-.21-.21v-11.56c0-.13.09-.21.21-.21h14.34c.13,0,.21.09.21.21s-.09.21-.21.21h-14.13v11.13h16.7v-11.13h-.43c-.13,0-.21-.09-.21-.21s.09-.21.21-.21h.64c.13,0,.21.09.21.21v11.56c0,.13-.11.21-.21.21Z"/>
    <path class="cls-2" d="M14.26,171.58c-.06,0-.11-.02-.15-.06-.09-.09-.09-.21,0-.3l1.46-1.46c.09-.09.21-.09.3,0s.09.21,0,.3l-1.46,1.46s-.11.06-.15.06Z"/>
    <path class="cls-2" d="M19.61,174.04c-.06,0-.11-.02-.15-.06l-3.92-3.92c-.09-.09-.09-.21,0-.3s.21-.09.3,0l3.92,3.92c.09.09.09.21,0,.3-.04.04-.09.06-.15.06Z"/>
    <path class="cls-2" d="M17.96,171.28c-.06,0-.11-.02-.15-.06-.09-.09-.09-.21,0-.3l2.8-2.8c.09-.09.21-.09.3,0s.09.21,0,.3l-2.8,2.8s-.09.06-.15.06Z"/>
    <path class="cls-2" d="M26.33,172.86c-.06,0-.11-.02-.15-.06-.09-.09-.09-.21,0-.3l2.8-2.8c.09-.09.21-.09.3,0s.09.21,0,.3l-2.8,2.8s-.11.06-.15.06Z"/>
    <path class="cls-2" d="M27.25,174.94c-.06,0-.11-.02-.15-.06l-6.49-6.49c-.09-.09-.09-.21,0-.3s.21-.09.3,0l6.49,6.49c.09.09.09.21,0,.3-.04.04-.11.06-.15.06Z"/>
    <path class="cls-2" d="M31.21,172.11c-.06,0-.11-.02-.15-.06l-2.08-2.08c-.09-.09-.09-.21,0-.3s.21-.09.3,0l2.08,2.08c.09.09.09.21,0,.3-.04.06-.09.06-.15.06Z"/>
    <path class="cls-2" d="M25.71,169.25c-.71,0-1.28-.58-1.28-1.28s.58-1.28,1.28-1.28c.26,0,.51.09.73.24.11.06.13.19.04.3-.06.11-.19.13-.3.04-.15-.11-.32-.15-.49-.15-.47,0-.86.39-.86.86s.39.86.86.86.86-.39.86-.86c0-.13.09-.21.21-.21s.21.09.21.21c.02.71-.56,1.28-1.26,1.28Z"/>
    <path class="cls-2" d="M32.65,182.95H13.34c-.58,0-1.03-.47-1.03-1.07v-24.83c0-.6.45-1.07,1.03-1.07h14.56c.06,0,.11.02.15.06l5.63,5.57s.06.09.06.15v20.12c0,.6-.49,1.07-1.09,1.07ZM13.34,156.4c-.34,0-.6.28-.6.64v24.83c0,.36.26.64.6.64h19.31c.36,0,.66-.3.66-.64v-20.04l-5.5-5.44h-14.47Z"/>
    <path class="cls-2" d="M31.6,161.97h-2.06c-.9,0-1.8-.94-1.8-1.86v-3.7c0-.13.09-.21.21-.21s.21.09.21.21v3.7c0,.69.73,1.43,1.37,1.43h2.06c.13,0,.21.09.21.21s-.11.21-.21.21Z"/>
    <g>
      <path class="cls-2" d="M42.17,177.17v-18.14h10.68v2.04h-8.5v6.01h7.85v2.04h-7.8v8.05h-2.24Z"/>
      <path class="cls-2" d="M56.5,177.17v-18.14h3.3l2.31,7.85,2.41-7.85h3.3v18.14h-2.16v-8.57c0-.81.01-1.74.04-2.8.03-1.05.06-2.12.11-3.19.05-1.08.11-2.05.17-2.91l-2.93,9.37h-1.94l-2.81-9.14c.13,1.23.22,2.57.27,4.03.05,1.46.07,3.01.07,4.65v8.57h-2.16Z"/>
      <path class="cls-2" d="M77.08,177.42c-1.67,0-3-.48-3.99-1.45-.99-.97-1.48-2.26-1.48-3.89v-7.95c0-1.62.49-2.92,1.48-3.89.99-.97,2.31-1.45,3.99-1.45s3,.48,3.99,1.45c.99.97,1.48,2.27,1.48,3.89v7.95c0,1.08-.22,2.02-.67,2.82-.45.8-1.08,1.42-1.9,1.86-.82.44-1.79.66-2.89.66ZM77.08,175.5c.99,0,1.79-.32,2.4-.96s.91-1.46.91-2.47v-7.95c0-1.01-.3-1.83-.91-2.47s-1.4-.96-2.4-.96-1.79.32-2.4.96c-.61.64-.91,1.46-.91,2.47v7.95c0,1.01.3,1.83.91,2.47.6.64,1.4.96,2.4.96ZM77.08,169.46c-.45,0-.81-.12-1.08-.37-.27-.25-.41-.6-.41-1.07s.14-.79.41-1.03.63-.36,1.08-.36.81.12,1.08.36c.27.24.41.58.41,1.03s-.14.82-.41,1.07c-.27.25-.63.37-1.08.37Z"/>
      <path class="cls-2" d="M89.25,177.17l6.46-16.1h-6.91v2.93h-2.24v-4.97h11.53v2.09l-6.41,16.05h-2.43Z"/>
      <path class="cls-2" d="M101.67,177.17v-2.04h4.92v-14.16l-4.92,3.68v-2.56l4.1-3.06h3.06v16.1h4.03v2.04h-11.18Z"/>
      <path class="cls-2" d="M121.82,177.42c-1.16,0-2.18-.25-3.07-.73-.89-.49-1.58-1.17-2.07-2.04-.5-.87-.75-1.88-.75-3.02,0-.8.15-1.61.45-2.45.3-.84.7-1.71,1.22-2.62l4.2-7.53h2.48l-4.47,7.78.08.05c.21-.28.54-.5.97-.65.43-.15.9-.22,1.42-.22,1.08,0,2.02.24,2.82.71.8.47,1.43,1.12,1.89,1.95.46.83.68,1.79.68,2.88,0,1.16-.25,2.18-.75,3.07-.5.89-1.18,1.58-2.05,2.07-.87.5-1.88.75-3.04.75ZM121.8,175.43c1.08,0,1.95-.36,2.62-1.07.67-.71,1.01-1.64,1.01-2.78s-.33-2.07-1.01-2.78c-.67-.71-1.54-1.07-2.62-1.07s-1.95.36-2.62,1.07c-.67.71-1.01,1.64-1.01,2.78s.34,2.07,1.01,2.78c.67.71,1.54,1.07,2.62,1.07Z"/>
      <path class="cls-2" d="M130.74,179.65v-1.86h11.93v1.86h-11.93Z"/>
      <path class="cls-2" d="M151.61,177.42c-1.67,0-3-.48-3.99-1.45-.99-.97-1.48-2.26-1.48-3.89v-7.95c0-1.62.49-2.92,1.48-3.89.99-.97,2.31-1.45,3.99-1.45s3,.48,3.99,1.45c.99.97,1.48,2.27,1.48,3.89v7.95c0,1.08-.22,2.02-.67,2.82-.45.8-1.08,1.42-1.9,1.86-.82.44-1.79.66-2.89.66ZM151.61,175.5c.99,0,1.79-.32,2.4-.96s.91-1.46.91-2.47v-7.95c0-1.01-.3-1.83-.91-2.47s-1.4-.96-2.4-.96-1.79.32-2.4.96c-.61.64-.91,1.46-.91,2.47v7.95c0,1.01.3,1.83.91,2.47.6.64,1.4.96,2.4.96ZM151.61,169.46c-.45,0-.81-.12-1.08-.37-.27-.25-.41-.6-.41-1.07s.14-.79.41-1.03.63-.36,1.08-.36.81.12,1.08.36c.27.24.41.58.41,1.03s-.14.82-.41,1.07c-.27.25-.63.37-1.08.37Z"/>
      <path class="cls-2" d="M166.52,177.42c-1.67,0-3-.48-3.99-1.45-.99-.97-1.48-2.26-1.48-3.89v-7.95c0-1.62.49-2.92,1.48-3.89.99-.97,2.31-1.45,3.99-1.45s3,.48,3.99,1.45c.99.97,1.48,2.27,1.48,3.89v7.95c0,1.08-.22,2.02-.67,2.82-.45.8-1.08,1.42-1.9,1.86-.82.44-1.79.66-2.89.66ZM166.52,175.5c.99,0,1.79-.32,2.4-.96s.91-1.46.91-2.47v-7.95c0-1.01-.3-1.83-.91-2.47s-1.4-.96-2.4-.96-1.79.32-2.4.96c-.61.64-.91,1.46-.91,2.47v7.95c0,1.01.3,1.83.91,2.47.6.64,1.4.96,2.4.96ZM166.52,169.46c-.45,0-.81-.12-1.08-.37-.27-.25-.41-.6-.41-1.07s.14-.79.41-1.03.63-.36,1.08-.36.81.12,1.08.36c.27.24.41.58.41,1.03s-.14.82-.41,1.07c-.27.25-.63.37-1.08.37Z"/>
      <path class="cls-2" d="M183.91,177.17v-3.98h-8.2v-3.5l6.61-10.66h2.53l-6.91,11.16v.97h5.96v-4.42h2.24v10.44h-2.24Z"/>
    </g>
  </g>
  <g>
    <path class="cls-8" d="M28.07,202.95h-14.77c-.43,0-.96.45-.96.86v24.83c0,.41.56.86.96.86h19.52c.41,0,.71-.43.71-.86v-20.12l-5.46-5.57Z"/>
    <path class="cls-10" d="M27.94,203.19v3.9c0,.73.81,1.43,1.54,1.43h3.87l-5.42-5.33Z"/>
    <rect class="cls-3" x="14.47" y="211.94" width="17.13" height="11.56"/>
    <path class="cls-5" d="M26.78,214.73c.02.58-.47,1.07-1.07,1.07s-1.07-.47-1.07-1.07.47-1.07,1.07-1.07c.24,0,.45.06.62.19,0,0,.43.21.45.88Z"/>
    <path class="cls-9" d="M31.28,223.5H14.47v-5.44l1.24-1.39,3.73,4.07s.11.06.17.06.11-.02.15-.06c.09-.09.09-.21,0-.3l-2.01-2.01,3.02-3.1,6.32,6.32s.11.06.15.06.11-.02.15-.06c.09-.09.09-.21,0-.3l-1.39-1.39,3.13-3.06,2.12,2.12.04,4.5Z"/>
    <path class="cls-2" d="M31.38,223.93H14.26c-.13,0-.21-.09-.21-.21v-11.56c0-.13.09-.21.21-.21h14.34c.13,0,.21.09.21.21s-.09.21-.21.21h-14.13v11.13h16.7v-11.13h-.43c-.13,0-.21-.09-.21-.21s.09-.21.21-.21h.64c.13,0,.21.09.21.21v11.56c0,.13-.11.21-.21.21Z"/>
    <path class="cls-2" d="M14.26,218.34c-.06,0-.11-.02-.15-.06-.09-.09-.09-.21,0-.3l1.46-1.46c.09-.09.21-.09.3,0s.09.21,0,.3l-1.46,1.46s-.11.06-.15.06Z"/>
    <path class="cls-2" d="M19.61,220.81c-.06,0-.11-.02-.15-.06l-3.92-3.92c-.09-.09-.09-.21,0-.3s.21-.09.3,0l3.92,3.92c.09.09.09.21,0,.3-.04.04-.09.06-.15.06Z"/>
    <path class="cls-2" d="M17.96,218.04c-.06,0-.11-.02-.15-.06-.09-.09-.09-.21,0-.3l2.8-2.8c.09-.09.21-.09.3,0s.09.21,0,.3l-2.8,2.8s-.09.06-.15.06Z"/>
    <path class="cls-2" d="M26.33,219.63c-.06,0-.11-.02-.15-.06-.09-.09-.09-.21,0-.3l2.8-2.8c.09-.09.21-.09.3,0s.09.21,0,.3l-2.8,2.8s-.11.06-.15.06Z"/>
    <path class="cls-2" d="M27.25,221.7c-.06,0-.11-.02-.15-.06l-6.49-6.49c-.09-.09-.09-.21,0-.3s.21-.09.3,0l6.49,6.49c.09.09.09.21,0,.3-.04.04-.11.06-.15.06Z"/>
    <path class="cls-2" d="M31.21,218.88c-.06,0-.11-.02-.15-.06l-2.08-2.08c-.09-.09-.09-.21,0-.3s.21-.09.3,0l2.08,2.08c.09.09.09.21,0,.3-.04.06-.09.06-.15.06Z"/>
    <path class="cls-2" d="M25.71,216.01c-.71,0-1.28-.58-1.28-1.28s.58-1.28,1.28-1.28c.26,0,.51.09.73.24.11.06.13.19.04.3-.06.11-.19.13-.3.04-.15-.11-.32-.15-.49-.15-.47,0-.86.39-.86.86s.39.86.86.86.86-.39.86-.86c0-.13.09-.21.21-.21s.21.09.21.21c.02.71-.56,1.28-1.26,1.28Z"/>
    <path class="cls-2" d="M32.65,229.71H13.34c-.58,0-1.03-.47-1.03-1.07v-24.83c0-.6.45-1.07,1.03-1.07h14.56c.06,0,.11.02.15.06l5.63,5.57s.06.09.06.15v20.12c0,.6-.49,1.07-1.09,1.07ZM13.34,203.17c-.34,0-.6.28-.6.64v24.83c0,.36.26.64.6.64h19.31c.36,0,.66-.3.66-.64v-20.04l-5.5-5.44h-14.47Z"/>
    <path class="cls-2" d="M31.6,208.73h-2.06c-.9,0-1.8-.94-1.8-1.86v-3.7c0-.13.09-.21.21-.21s.21.09.21.21v3.7c0,.69.73,1.43,1.37,1.43h2.06c.13,0,.21.09.21.21s-.11.21-.21.21Z"/>
    <text class="cls-12" transform="translate(39.81 223.93)"><tspan x="0" y="0">FM0716_003.???</tspan></text>
  </g>
  <g>
    <path class="cls-8" d="M28.07,249.71h-14.77c-.43,0-.96.45-.96.86v24.83c0,.41.56.86.96.86h19.52c.41,0,.71-.43.71-.86v-20.12l-5.46-5.57Z"/>
    <path class="cls-10" d="M27.94,249.95v3.9c0,.73.81,1.43,1.54,1.43h3.87l-5.42-5.33Z"/>
    <rect class="cls-3" x="14.47" y="258.71" width="17.13" height="11.56"/>
    <path class="cls-5" d="M26.78,261.49c.02.58-.47,1.07-1.07,1.07s-1.07-.47-1.07-1.07.47-1.07,1.07-1.07c.24,0,.45.06.62.19,0,0,.43.21.45.88Z"/>
    <path class="cls-9" d="M31.28,270.27H14.47v-5.44l1.24-1.39,3.73,4.07s.11.06.17.06.11-.02.15-.06c.09-.09.09-.21,0-.3l-2.01-2.01,3.02-3.1,6.32,6.32s.11.06.15.06.11-.02.15-.06c.09-.09.09-.21,0-.3l-1.39-1.39,3.13-3.06,2.12,2.12.04,4.5Z"/>
    <path class="cls-2" d="M31.38,270.69H14.26c-.13,0-.21-.09-.21-.21v-11.56c0-.13.09-.21.21-.21h14.34c.13,0,.21.09.21.21s-.09.21-.21.21h-14.13v11.13h16.7v-11.13h-.43c-.13,0-.21-.09-.21-.21s.09-.21.21-.21h.64c.13,0,.21.09.21.21v11.56c0,.13-.11.21-.21.21Z"/>
    <path class="cls-2" d="M14.26,265.11c-.06,0-.11-.02-.15-.06-.09-.09-.09-.21,0-.3l1.46-1.46c.09-.09.21-.09.3,0s.09.21,0,.3l-1.46,1.46s-.11.06-.15.06Z"/>
    <path class="cls-2" d="M19.61,267.57c-.06,0-.11-.02-.15-.06l-3.92-3.92c-.09-.09-.09-.21,0-.3s.21-.09.3,0l3.92,3.92c.09.09.09.21,0,.3-.04.04-.09.06-.15.06Z"/>
    <path class="cls-2" d="M17.96,264.81c-.06,0-.11-.02-.15-.06-.09-.09-.09-.21,0-.3l2.8-2.8c.09-.09.21-.09.3,0s.09.21,0,.3l-2.8,2.8s-.09.06-.15.06Z"/>
    <path class="cls-2" d="M26.33,266.39c-.06,0-.11-.02-.15-.06-.09-.09-.09-.21,0-.3l2.8-2.8c.09-.09.21-.09.3,0s.09.21,0,.3l-2.8,2.8s-.11.06-.15.06Z"/>
    <path class="cls-2" d="M27.25,268.47c-.06,0-.11-.02-.15-.06l-6.49-6.49c-.09-.09-.09-.21,0-.3s.21-.09.3,0l6.49,6.49c.09.09.09.21,0,.3-.04.04-.11.06-.15.06Z"/>
    <path class="cls-2" d="M31.21,265.64c-.06,0-.11-.02-.15-.06l-2.08-2.08c-.09-.09-.09-.21,0-.3s.21-.09.3,0l2.08,2.08c.09.09.09.21,0,.3-.04.06-.09.06-.15.06Z"/>
    <path class="cls-2" d="M25.71,262.77c-.71,0-1.28-.58-1.28-1.28s.58-1.28,1.28-1.28c.26,0,.51.09.73.24.11.06.13.19.04.3-.06.11-.19.13-.3.04-.15-.11-.32-.15-.49-.15-.47,0-.86.39-.86.86s.39.86.86.86.86-.39.86-.86c0-.13.09-.21.21-.21s.21.09.21.21c.02.71-.56,1.28-1.26,1.28Z"/>
    <path class="cls-2" d="M32.65,276.48H13.34c-.58,0-1.03-.47-1.03-1.07v-24.83c0-.6.45-1.07,1.03-1.07h14.56c.06,0,.11.02.15.06l5.63,5.57s.06.09.06.15v20.12c0,.6-.49,1.07-1.09,1.07ZM13.34,249.93c-.34,0-.6.28-.6.64v24.83c0,.36.26.64.6.64h19.31c.36,0,.66-.3.66-.64v-20.04l-5.5-5.44h-14.47Z"/>
    <path class="cls-2" d="M31.6,255.5h-2.06c-.9,0-1.8-.94-1.8-1.86v-3.7c0-.13.09-.21.21-.21s.21.09.21.21v3.7c0,.69.73,1.43,1.37,1.43h2.06c.13,0,.21.09.21.21s-.11.21-.21.21Z"/>
    <text class="cls-12" transform="translate(39.81 270.69)"><tspan x="0" y="0">fm0707_006.???</tspan></text>
  </g>
  <g>
    <path class="cls-8" d="M27.66,62.66h-14.77c-.43,0-.96.45-.96.86v24.83c0,.41.56.86.96.86h19.52c.41,0,.71-.43.71-.86v-20.12l-5.46-5.57Z"/>
    <path class="cls-10" d="M27.53,62.9v3.9c0,.73.81,1.43,1.54,1.43h3.87l-5.42-5.33Z"/>
    <rect class="cls-3" x="14.06" y="71.65" width="17.13" height="11.56"/>
    <path class="cls-5" d="M26.37,74.43c.02.58-.47,1.07-1.07,1.07s-1.07-.47-1.07-1.07.47-1.07,1.07-1.07c.24,0,.45.06.62.19,0,0,.43.21.45.88Z"/>
    <path class="cls-9" d="M30.87,83.21H14.06v-5.44l1.24-1.39,3.73,4.07s.11.06.17.06.11-.02.15-.06c.09-.09.09-.21,0-.3l-2.01-2.01,3.02-3.1,6.32,6.32s.11.06.15.06.11-.02.15-.06c.09-.09.09-.21,0-.3l-1.39-1.39,3.13-3.06,2.12,2.12.04,4.5Z"/>
    <path class="cls-2" d="M30.98,83.64H13.85c-.13,0-.21-.09-.21-.21v-11.56c0-.13.09-.21.21-.21h14.34c.13,0,.21.09.21.21s-.09.21-.21.21h-14.13v11.13h16.7v-11.13h-.43c-.13,0-.21-.09-.21-.21s.09-.21.21-.21h.64c.13,0,.21.09.21.21v11.56c0,.13-.11.21-.21.21Z"/>
    <path class="cls-2" d="M13.85,78.05c-.06,0-.11-.02-.15-.06-.09-.09-.09-.21,0-.3l1.46-1.46c.09-.09.21-.09.3,0s.09.21,0,.3l-1.46,1.46s-.11.06-.15.06Z"/>
    <path class="cls-2" d="M19.2,80.51c-.06,0-.11-.02-.15-.06l-3.92-3.92c-.09-.09-.09-.21,0-.3s.21-.09.3,0l3.92,3.92c.09.09.09.21,0,.3-.04.04-.09.06-.15.06Z"/>
    <path class="cls-2" d="M17.55,77.75c-.06,0-.11-.02-.15-.06-.09-.09-.09-.21,0-.3l2.8-2.8c.09-.09.21-.09.3,0s.09.21,0,.3l-2.8,2.8s-.09.06-.15.06Z"/>
    <path class="cls-2" d="M25.93,79.34c-.06,0-.11-.02-.15-.06-.09-.09-.09-.21,0-.3l2.8-2.8c.09-.09.21-.09.3,0s.09.21,0,.3l-2.8,2.8s-.11.06-.15.06Z"/>
    <path class="cls-2" d="M26.85,81.41c-.06,0-.11-.02-.15-.06l-6.49-6.49c-.09-.09-.09-.21,0-.3s.21-.09.3,0l6.49,6.49c.09.09.09.21,0,.3-.04.04-.11.06-.15.06Z"/>
    <path class="cls-2" d="M30.81,78.59c-.06,0-.11-.02-.15-.06l-2.08-2.08c-.09-.09-.09-.21,0-.3s.21-.09.3,0l2.08,2.08c.09.09.09.21,0,.3-.04.06-.09.06-.15.06Z"/>
    <path class="cls-2" d="M25.3,75.72c-.71,0-1.28-.58-1.28-1.28s.58-1.28,1.28-1.28c.26,0,.51.09.73.24.11.06.13.19.04.3-.06.11-.19.13-.3.04-.15-.11-.32-.15-.49-.15-.47,0-.86.39-.86.86s.39.86.86.86.86-.39.86-.86c0-.13.09-.21.21-.21s.21.09.21.21c.02.71-.56,1.28-1.26,1.28Z"/>
    <path class="cls-2" d="M32.24,89.42H12.93c-.58,0-1.03-.47-1.03-1.07v-24.83c0-.6.45-1.07,1.03-1.07h14.56c.06,0,.11.02.15.06l5.63,5.57s.06.09.06.15v20.12c0,.6-.49,1.07-1.09,1.07ZM12.93,62.87c-.34,0-.6.28-.6.64v24.83c0,.36.26.64.6.64h19.31c.36,0,.66-.3.66-.64v-20.04l-5.5-5.44h-14.47Z"/>
    <path class="cls-2" d="M31.19,68.44h-2.06c-.9,0-1.8-.94-1.8-1.86v-3.7c0-.13.09-.21.21-.21s.21.09.21.21v3.7c0,.69.73,1.43,1.37,1.43h2.06c.13,0,.21.09.21.21s-.11.21-.21.21Z"/>
    <text class="cls-12" transform="translate(39.4 83.64)"><tspan x="0" y="0">FM0716_006.???</tspan></text>
  </g>
  <g>
    <path class="cls-8" d="M27.64,109.42h-14.77c-.43,0-.96.45-.96.86v24.83c0,.41.56.86.96.86h19.52c.41,0,.71-.43.71-.86v-20.12l-5.46-5.57Z"/>
    <path class="cls-10" d="M27.51,109.66v3.9c0,.73.81,1.43,1.54,1.43h3.87l-5.42-5.33Z"/>
    <rect class="cls-3" x="14.04" y="118.41" width="17.13" height="11.56"/>
    <path class="cls-5" d="M26.35,121.2c.02.58-.47,1.07-1.07,1.07s-1.07-.47-1.07-1.07.47-1.07,1.07-1.07c.24,0,.45.06.62.19,0,0,.43.21.45.88Z"/>
    <path class="cls-9" d="M30.85,129.98H14.04v-5.44l1.24-1.39,3.73,4.07s.11.06.17.06.11-.02.15-.06c.09-.09.09-.21,0-.3l-2.01-2.01,3.02-3.1,6.32,6.32s.11.06.15.06.11-.02.15-.06c.09-.09.09-.21,0-.3l-1.39-1.39,3.13-3.06,2.12,2.12.04,4.5Z"/>
    <path class="cls-2" d="M30.96,130.4H13.83c-.13,0-.21-.09-.21-.21v-11.56c0-.13.09-.21.21-.21h14.34c.13,0,.21.09.21.21s-.09.21-.21.21h-14.13v11.13h16.7v-11.13h-.43c-.13,0-.21-.09-.21-.21s.09-.21.21-.21h.64c.13,0,.21.09.21.21v11.56c0,.13-.11.21-.21.21Z"/>
    <path class="cls-2" d="M13.83,124.82c-.06,0-.11-.02-.15-.06-.09-.09-.09-.21,0-.3l1.46-1.46c.09-.09.21-.09.3,0s.09.21,0,.3l-1.46,1.46s-.11.06-.15.06Z"/>
    <path class="cls-2" d="M19.18,127.28c-.06,0-.11-.02-.15-.06l-3.92-3.92c-.09-.09-.09-.21,0-.3s.21-.09.3,0l3.92,3.92c.09.09.09.21,0,.3-.04.04-.09.06-.15.06Z"/>
    <path class="cls-2" d="M17.53,124.52c-.06,0-.11-.02-.15-.06-.09-.09-.09-.21,0-.3l2.8-2.8c.09-.09.21-.09.3,0s.09.21,0,.3l-2.8,2.8s-.09.06-.15.06Z"/>
    <path class="cls-2" d="M25.9,126.1c-.06,0-.11-.02-.15-.06-.09-.09-.09-.21,0-.3l2.8-2.8c.09-.09.21-.09.3,0s.09.21,0,.3l-2.8,2.8s-.11.06-.15.06Z"/>
    <path class="cls-2" d="M26.82,128.18c-.06,0-.11-.02-.15-.06l-6.49-6.49c-.09-.09-.09-.21,0-.3s.21-.09.3,0l6.49,6.49c.09.09.09.21,0,.3-.04.04-.11.06-.15.06Z"/>
    <path class="cls-2" d="M30.78,125.35c-.06,0-.11-.02-.15-.06l-2.08-2.08c-.09-.09-.09-.21,0-.3s.21-.09.3,0l2.08,2.08c.09.09.09.21,0,.3-.04.06-.09.06-.15.06Z"/>
    <path class="cls-2" d="M25.28,122.48c-.71,0-1.28-.58-1.28-1.28s.58-1.28,1.28-1.28c.26,0,.51.09.73.24.11.06.13.19.04.3-.06.11-.19.13-.3.04-.15-.11-.32-.15-.49-.15-.47,0-.86.39-.86.86s.39.86.86.86.86-.39.86-.86c0-.13.09-.21.21-.21s.21.09.21.21c.02.71-.56,1.28-1.26,1.28Z"/>
    <path class="cls-2" d="M32.22,136.18H12.91c-.58,0-1.03-.47-1.03-1.07v-24.83c0-.6.45-1.07,1.03-1.07h14.56c.06,0,.11.02.15.06l5.63,5.57s.06.09.06.15v20.12c0,.6-.49,1.07-1.09,1.07ZM12.91,109.64c-.34,0-.6.28-.6.64v24.83c0,.36.26.64.6.64h19.31c.36,0,.66-.3.66-.64v-20.04l-5.5-5.44h-14.47Z"/>
    <path class="cls-2" d="M31.17,115.2h-2.06c-.9,0-1.8-.94-1.8-1.86v-3.7c0-.13.09-.21.21-.21s.21.09.21.21v3.7c0,.69.73,1.43,1.37,1.43h2.06c.13,0,.21.09.21.21s-.11.21-.21.21Z"/>
    <g>
      <path class="cls-2" d="M41.74,130.4v-18.14h10.68v2.04h-8.5v6.01h7.85v2.04h-7.8v8.05h-2.24Z"/>
      <path class="cls-2" d="M56.08,130.4v-18.14h3.3l2.31,7.85,2.41-7.85h3.3v18.14h-2.16v-8.57c0-.81.01-1.74.04-2.8.03-1.05.06-2.12.11-3.19.05-1.08.11-2.05.17-2.91l-2.93,9.37h-1.94l-2.81-9.14c.13,1.23.22,2.57.27,4.03.05,1.46.07,3.01.07,4.65v8.57h-2.16Z"/>
      <path class="cls-2" d="M76.65,130.65c-1.67,0-3-.48-3.99-1.45-.99-.97-1.48-2.26-1.48-3.89v-7.95c0-1.62.49-2.92,1.48-3.89.99-.97,2.31-1.45,3.99-1.45s3,.48,3.99,1.45c.99.97,1.48,2.27,1.48,3.89v7.95c0,1.08-.22,2.02-.67,2.82-.45.8-1.08,1.42-1.9,1.86-.82.44-1.79.66-2.89.66ZM76.65,128.74c.99,0,1.79-.32,2.4-.96s.91-1.46.91-2.47v-7.95c0-1.01-.3-1.83-.91-2.47s-1.4-.96-2.4-.96-1.79.32-2.4.96c-.61.64-.91,1.46-.91,2.47v7.95c0,1.01.3,1.83.91,2.47.6.64,1.4.96,2.4.96ZM76.65,122.7c-.45,0-.81-.12-1.08-.37-.27-.25-.41-.6-.41-1.07s.14-.79.41-1.03.63-.36,1.08-.36.81.12,1.08.36c.27.24.41.58.41,1.03s-.14.82-.41,1.07c-.27.25-.63.37-1.08.37Z"/>
      <path class="cls-2" d="M88.82,130.4l6.46-16.1h-6.91v2.93h-2.24v-4.97h11.53v2.09l-6.41,16.05h-2.43Z"/>
      <path class="cls-2" d="M101.25,130.4v-2.04h4.92v-14.16l-4.92,3.68v-2.56l4.1-3.06h3.06v16.1h4.03v2.04h-11.18Z"/>
      <path class="cls-2" d="M121.4,130.65c-1.16,0-2.18-.25-3.07-.73-.89-.49-1.58-1.17-2.07-2.04-.5-.87-.75-1.88-.75-3.02,0-.8.15-1.61.45-2.45.3-.84.7-1.71,1.22-2.62l4.2-7.53h2.48l-4.47,7.78.08.05c.21-.28.54-.5.97-.65.43-.15.9-.22,1.42-.22,1.08,0,2.02.24,2.82.71.8.47,1.43,1.12,1.89,1.95.46.83.68,1.79.68,2.88,0,1.16-.25,2.18-.75,3.07-.5.89-1.18,1.58-2.05,2.07-.87.5-1.88.75-3.04.75ZM121.37,128.66c1.08,0,1.95-.36,2.62-1.07.67-.71,1.01-1.64,1.01-2.78s-.33-2.07-1.01-2.78c-.67-.71-1.54-1.07-2.62-1.07s-1.95.36-2.62,1.07c-.67.71-1.01,1.64-1.01,2.78s.34,2.07,1.01,2.78c.67.71,1.54,1.07,2.62,1.07Z"/>
      <path class="cls-2" d="M130.32,132.89v-1.86h11.93v1.86h-11.93Z"/>
      <path class="cls-2" d="M151.19,130.65c-1.67,0-3-.48-3.99-1.45-.99-.97-1.48-2.26-1.48-3.89v-7.95c0-1.62.49-2.92,1.48-3.89.99-.97,2.31-1.45,3.99-1.45s3,.48,3.99,1.45c.99.97,1.48,2.27,1.48,3.89v7.95c0,1.08-.22,2.02-.67,2.82-.45.8-1.08,1.42-1.9,1.86-.82.44-1.79.66-2.89.66ZM151.19,128.74c.99,0,1.79-.32,2.4-.96s.91-1.46.91-2.47v-7.95c0-1.01-.3-1.83-.91-2.47s-1.4-.96-2.4-.96-1.79.32-2.4.96c-.61.64-.91,1.46-.91,2.47v7.95c0,1.01.3,1.83.91,2.47.6.64,1.4.96,2.4.96ZM151.19,122.7c-.45,0-.81-.12-1.08-.37-.27-.25-.41-.6-.41-1.07s.14-.79.41-1.03.63-.36,1.08-.36.81.12,1.08.36c.27.24.41.58.41,1.03s-.14.82-.41,1.07c-.27.25-.63.37-1.08.37Z"/>
      <path class="cls-2" d="M166.09,130.65c-1.67,0-3-.48-3.99-1.45-.99-.97-1.48-2.26-1.48-3.89v-7.95c0-1.62.49-2.92,1.48-3.89.99-.97,2.31-1.45,3.99-1.45s3,.48,3.99,1.45c.99.97,1.48,2.27,1.48,3.89v7.95c0,1.08-.22,2.02-.67,2.82-.45.8-1.08,1.42-1.9,1.86-.82.44-1.79.66-2.89.66ZM166.09,128.74c.99,0,1.79-.32,2.4-.96s.91-1.46.91-2.47v-7.95c0-1.01-.3-1.83-.91-2.47s-1.4-.96-2.4-.96-1.79.32-2.4.96c-.61.64-.91,1.46-.91,2.47v7.95c0,1.01.3,1.83.91,2.47.6.64,1.4.96,2.4.96ZM166.09,122.7c-.45,0-.81-.12-1.08-.37-.27-.25-.41-.6-.41-1.07s.14-.79.41-1.03.63-.36,1.08-.36.81.12,1.08.36c.27.24.41.58.41,1.03s-.14.82-.41,1.07c-.27.25-.63.37-1.08.37Z"/>
      <path class="cls-2" d="M180.85,130.65c-1.67,0-3-.47-3.98-1.4-.98-.94-1.47-2.21-1.47-3.81h2.24c0,.99.29,1.78.87,2.36.58.58,1.37.87,2.36.87s1.78-.29,2.36-.87c.58-.58.87-1.37.87-2.36v-1.12c0-.99-.28-1.78-.84-2.36-.56-.58-1.33-.87-2.29-.87h-4.94v-8.82h9.67v2.04h-7.58l.05,4.75h2.93c1.67,0,2.96.46,3.88,1.38.91.92,1.37,2.22,1.37,3.89v1.12c0,1.61-.49,2.88-1.48,3.81-.99.94-2.32,1.4-4.01,1.4Z"/>
    </g>
  </g>
  <g>
    <g class="cls-11">
      <g>
        <path class="cls-7" d="M226.41,83.22c34.2,0,61.92,27.72,61.92,61.92s-27.72,61.92-61.92,61.92c-12.29,0-23.74-3.6-33.38-9.78l-23.58,23.58c-5.18,5.18-13.58,5.18-18.76,0s-5.19-13.58,0-18.76l23.58-23.59c-6.18-9.63-9.78-21.08-9.78-33.37,0-34.2,27.72-61.92,61.92-61.92ZM283.91,145.14c0-31.76-25.74-57.5-57.5-57.5s-57.5,25.74-57.5,57.5,25.75,57.49,57.5,57.49,57.5-25.74,57.5-57.49ZM166.32,217.73l23.01-23c-4.75-3.55-8.96-7.77-12.51-12.51l-23.01,23c-3.45,3.45-3.45,9.06,0,12.51s9.06,3.46,12.51,0Z"/>
        <path class="cls-4" d="M226.41,87.64c31.76,0,57.5,25.74,57.5,57.5s-25.74,57.49-57.5,57.49-57.5-25.74-57.5-57.49,25.75-57.5,57.5-57.5ZM279.49,145.14c0-29.32-23.77-53.08-53.08-53.08s-53.07,23.76-53.07,53.08,23.76,53.07,53.07,53.07,53.08-23.76,53.08-53.07Z"/>
        <path class="cls-7" d="M226.41,92.06c29.31,0,53.08,23.76,53.08,53.08s-23.77,53.07-53.08,53.07-53.07-23.76-53.07-53.07,23.76-53.08,53.07-53.08ZM275.06,145.14c0-26.87-21.78-48.66-48.65-48.66s-48.65,21.79-48.65,48.66,21.78,48.65,48.65,48.65,48.65-21.79,48.65-48.65Z"/>
        <path class="cls-6" d="M189.33,194.73l-23.01,23c-3.45,3.46-9.05,3.46-12.51,0s-3.45-9.06,0-12.51l23.01-23c3.55,4.74,7.76,8.96,12.51,12.51Z"/>
      </g>
    </g>
    <path class="cls-1" d="M188.82,145.13c0,1.22.99,2.21,2.21,2.21s2.21-.99,2.21-2.21c0-18.32,14.85-33.17,33.17-33.17,1.22,0,2.21-.99,2.21-2.21s-.99-2.21-2.21-2.21c-20.76,0-37.59,16.83-37.59,37.59Z"/>
  </g>
  <g>
    <path class="cls-2" d="M195.35,130.24c-.47.12-.82.04-1.09-.25-.27-.29-.4-.72-.4-1.3,0-.61.14-1.15.43-1.6.29-.45.68-.74,1.18-.85.5-.11.91-.01,1.2.29.29.31.42.76.39,1.37-.03.57-.21,1.08-.53,1.51-.32.43-.72.71-1.18.83Z"/>
    <path class="cls-2" d="M209.75,128.19c-1.81.13-3.18-.22-4.13-1.02-.95-.8-1.33-1.98-1.16-3.46.13-1.13.26-2.22.41-3.24.19-1.34.86-2.34,1.98-3.02,1.12-.68,2.51-.95,4.16-.95,1.57,0,2.8.24,3.72.75.92.52,1.39,1.25,1.38,2.32-.79.01-1.57.03-2.35.06.01-.65-.25-1.11-.77-1.42-.52-.31-1.25-.45-2.19-.43-.99.02-1.82.23-2.48.65-.66.43-1.06,1.04-1.18,1.87-.14,1.01-.27,2.08-.4,3.2-.1.93.13,1.65.7,2.12.57.48,1.38.69,2.44.61,1.01-.07,1.84-.35,2.47-.83.63-.48,1-1.12,1.1-1.89.81-.03,1.63-.06,2.46-.09-.11,1.3-.72,2.42-1.85,3.29-1.13.87-2.59,1.37-4.31,1.49Z"/>
    <path class="cls-2" d="M222.6,132.3c0-.74-.02-1.48-.02-2.2,1.5.02,2.99.06,4.46.11.89.03,1.58-.16,2.06-.59.48-.43.7-1.03.65-1.77-.02-.42-.05-.83-.08-1.23-.03-.73-.06-1.43-.09-2.12-.03,0-.05,0-.08,0-.09.74-.47,1.31-1.17,1.7-.69.39-1.59.56-2.7.53-1.59-.05-2.88-.51-3.8-1.37-.93-.85-1.38-1.98-1.38-3.29,0-.81,0-1.57,0-2.28,0-1.16.43-1.95,1.24-2.5.81-.55,1.9-.79,3.31-.79.98,0,1.81.13,2.5.41.69.29,1.15.7,1.36,1.26.02,0,.03,0,.05,0-.07-.54-.15-1.05-.23-1.52.74,0,1.48,0,2.22,0,.55,2.86.99,6.8,1.3,11.37.1,1.38-.3,2.49-1.2,3.28-.91.8-2.21,1.17-3.92,1.11-1.48-.05-2.97-.09-4.48-.1ZM226.31,124.97c1.03.04,1.82-.2,2.36-.7.54-.5.77-1.21.69-2.08-.07-.74-.14-1.45-.21-2.12-.09-.79-.44-1.38-1.03-1.79-.6-.41-1.36-.6-2.31-.62-.97,0-1.7.15-2.22.51-.52.36-.77.86-.75,1.55.03.77.05,1.59.08,2.47.02.78.32,1.45.92,1.96.6.51,1.43.79,2.48.83Z"/>
    <path class="cls-2" d="M236.2,128.39c-.37-4.57-.87-8.61-1.5-11.73.65,0,1.29,0,1.94,0,.08.44.17.89.25,1.35.02,0,.03,0,.05,0,0-.47.18-.83.53-1.11.35-.28.84-.42,1.47-.42.6,0,1.12.13,1.58.42.45.29.8.69,1.04,1.21,0,0,.02,0,.02,0,.05-.51.26-.9.63-1.19.37-.29.87-.44,1.5-.45.88,0,1.6.3,2.13.94.53.65.78,1.51.79,2.54.04,3.43.06,6.88.09,10.34-.5-.15-1.02-.28-1.56-.42-.12-3.47-.27-6.87-.46-10.14-.03-.52-.18-.93-.45-1.25-.27-.31-.64-.48-1.09-.5-.44-.02-.77.1-1,.36-.23.26-.31.63-.26,1.11.33,3.08.61,6.4.82,9.88-.53-.1-1.08-.2-1.64-.3-.25-3.48-.57-6.75-.96-9.7-.06-.47-.24-.84-.54-1.12-.3-.28-.67-.42-1.12-.43-.46-.02-.8.09-1.02.33-.22.24-.3.56-.23,1,.44,2.8.79,6.02,1.07,9.5-.68-.09-1.38-.18-2.09-.25Z"/>
    <path class="cls-2" d="M196.1,177.69c-.56-.06-1.02-.29-1.36-.7-.34-.4-.51-.9-.51-1.47,0-.61.15-1.07.45-1.39.3-.31.7-.41,1.23-.31.52.1.96.36,1.32.78.36.42.56.91.61,1.48.04.54-.09.95-.41,1.25-.32.3-.77.42-1.33.35Z"/>
    <path class="cls-2" d="M211.01,178.79c-1.71-.07-3.12-.48-4.24-1.31-1.12-.83-1.76-1.98-1.93-3.47-.12-1.14-.24-2.33-.34-3.56-.13-1.61.27-2.87,1.25-3.75.98-.88,2.38-1.27,4.24-1.16,1.76.1,3.25.62,4.4,1.57,1.15.94,1.76,2.17,1.86,3.63-.85-.02-1.7-.05-2.54-.09-.1-.88-.46-1.59-1.1-2.11-.64-.52-1.49-.81-2.52-.88-1.09-.07-1.92.16-2.52.68-.59.52-.84,1.3-.76,2.32.1,1.24.21,2.43.33,3.57.1.93.48,1.65,1.15,2.16.67.52,1.51.79,2.54.84.97.05,1.74-.11,2.29-.48.55-.37.83-.92.84-1.67.81.03,1.63.06,2.45.08,0,1.27-.51,2.17-1.49,2.79-.98.62-2.27.89-3.9.83Z"/>
    <path class="cls-2" d="M222.7,181.64c.02-.38.04-.78.06-1.21,1.32,0,2.63-.02,3.95-.04.8-.01,1.44-.16,1.94-.48.5-.31.79-.74.86-1.3.04-.31.08-.63.11-.96.08-.59.16-1.21.24-1.85-.03,0-.05,0-.08,0-.21.7-.67,1.23-1.39,1.61-.72.38-1.59.57-2.63.6-1.49.03-2.66-.28-3.52-.99-.86-.71-1.31-1.73-1.3-3.15,0-.88,0-1.79.01-2.74,0-1.54.48-2.84,1.44-3.83.96-.99,2.28-1.51,3.92-1.56,1.14-.04,2.06.18,2.78.64.72.46,1.12,1.12,1.22,1.95.02,0,.04,0,.06,0,.04-.82.08-1.66.12-2.51.83-.05,1.65-.1,2.45-.16-.25,4.91-.62,9.34-1.11,12.84-.15,1.06-.71,1.83-1.66,2.37-.95.53-2.15.76-3.63.76h-3.83ZM226.58,176.52c1-.03,1.8-.3,2.41-.83.61-.53.96-1.25,1.03-2.2.06-.81.12-1.64.18-2.5.07-1.01-.18-1.82-.74-2.39-.56-.57-1.38-.84-2.44-.8-1.08.04-1.94.35-2.56.94-.62.58-.93,1.35-.95,2.27-.02,1.03-.05,2.01-.07,2.96-.02.84.25,1.48.8,1.93.55.45,1.33.65,2.35.62Z"/>
    <path class="cls-2" d="M235.68,178.29c.55-3.68.97-8.13,1.26-12.97.66-.07,1.3-.14,1.92-.22-.04.64-.08,1.27-.12,1.9.02,0,.03,0,.05,0,.12-.64.39-1.2.8-1.65.41-.45.9-.72,1.48-.81.54-.08.97.03,1.31.32.34.3.56.73.69,1.31,0,0,.01,0,.02,0,.13-.63.37-1.16.71-1.58.34-.42.75-.69,1.23-.8.66-.15,1.13.05,1.48.61.35.56.52,1.35.52,2.39v10.39c-.62.08-1.24.17-1.87.24.15-3.32.28-6.75.37-10.23.01-.55-.07-.96-.26-1.24-.19-.28-.46-.37-.83-.29-.35.08-.65.3-.88.67-.23.37-.37.83-.4,1.38-.19,3.51-.44,6.88-.75,10.03-.58.06-1.16.12-1.75.17.37-3.04.67-6.36.9-9.87.04-.55-.06-.98-.27-1.27-.22-.29-.53-.41-.95-.34-.43.07-.79.28-1.06.64-.28.36-.44.82-.48,1.38-.26,3.53-.6,6.82-1.02,9.72-.69.05-1.38.1-2.08.15Z"/>
  </g>
</svg>